# MagicaVoxel @ ephtracy

# material
mtllib desk.mtl
usemtl palette

# normals
vn -1 0 0
vn 1 0 0
vn 0 0 1
vn 0 0 -1
vn 0 -1 0
vn 0 1 0

# texcoords
vt 0.939453 0.5
vt 0.970703 0.5
vt 0.978516 0.5
vt 0.982422 0.5
vt 0.986328 0.5
vt 0.990234 0.5
vt 0.994141 0.5

# verts
v -5 0 2
v -5 0 -3
v -5 1 2
v -5 1 -0
v -5 1 -1
v -5 1 -3
v -5 5 3
v -5 5 -0
v -5 5 -1
v -5 5 -4
v -5 6 3
v -5 6 -2
v -5 6 -4
v -5 9 -2
v -5 9 -4
v -3 7 -0
v -3 7 -1
v -3 8 -0
v -3 8 -1
v -3 11 -0
v -3 11 -1
v -1 6 -2
v -1 6 -3
v -1 8 -1
v -1 8 -2
v -1 9 -1
v -1 9 -3
v 3 6 -2
v 3 6 -3
v 3 7 -2
v 3 7 -3
v 3 9 -2
v 3 9 -3
v 4 0 2
v 4 0 -3
v 4 1 2
v 4 1 -0
v 4 1 -1
v 4 1 -3
v 4 4 -0
v 4 4 -1
v -4 0 2
v -4 0 -3
v -4 1 2
v -4 1 -0
v -4 1 -1
v -4 1 -3
v -4 4 -0
v -4 4 -1
v -4 8 -2
v -4 8 -4
v -4 9 -2
v -4 9 -4
v -3 6 -2
v -3 6 -4
v -3 8 -2
v -3 8 -4
v 1 6 -2
v 1 6 -3
v 1 8 -1
v 1 8 -2
v 1 9 -1
v 1 9 -3
v 3 7 -0
v 3 7 -1
v 3 8 -0
v 3 8 -1
v 3 11 -0
v 3 11 -1
v 4 6 -2
v 4 6 -3
v 4 7 -2
v 4 7 -3
v 4 9 -2
v 4 9 -3
v 5 0 2
v 5 0 -3
v 5 1 2
v 5 1 -0
v 5 1 -1
v 5 1 -3
v 5 5 3
v 5 5 -0
v 5 5 -1
v 5 5 -4
v 5 6 3
v 5 6 -4
v -5 5 3
v -5 6 3
v 5 5 3
v 5 6 3
v -5 0 2
v -5 1 2
v -4 0 2
v -4 1 2
v 4 0 2
v 4 1 2
v 5 0 2
v 5 1 2
v -5 1 -0
v -5 5 -0
v -4 1 -0
v -4 4 -0
v -3 7 -0
v -3 8 -0
v -3 11 -0
v 3 7 -0
v 3 8 -0
v 3 11 -0
v 4 1 -0
v 4 4 -0
v 5 1 -0
v 5 5 -0
v -5 6 -2
v -5 9 -2
v -4 6 -2
v -4 8 -2
v -4 9 -2
v -3 6 -2
v -3 8 -2
v -1 6 -2
v -1 8 -2
v 1 6 -2
v 1 8 -2
v 3 6 -2
v 3 7 -2
v 3 9 -2
v 4 6 -2
v 4 7 -2
v 4 9 -2
v -5 1 -1
v -5 5 -1
v -4 1 -1
v -4 4 -1
v -3 7 -1
v -3 8 -1
v -3 11 -1
v -1 8 -1
v -1 9 -1
v 1 8 -1
v 1 9 -1
v 3 7 -1
v 3 8 -1
v 3 11 -1
v 4 1 -1
v 4 4 -1
v 5 1 -1
v 5 5 -1
v -5 0 -3
v -5 1 -3
v -4 0 -3
v -4 1 -3
v -1 6 -3
v -1 9 -3
v 1 6 -3
v 1 9 -3
v 3 6 -3
v 3 7 -3
v 3 9 -3
v 4 0 -3
v 4 1 -3
v 4 6 -3
v 4 7 -3
v 4 9 -3
v 5 0 -3
v 5 1 -3
v -5 5 -4
v -5 6 -4
v -5 9 -4
v -4 6 -4
v -4 8 -4
v -4 9 -4
v -3 6 -4
v -3 8 -4
v 5 5 -4
v 5 6 -4
v -5 0 2
v -4 0 2
v 4 0 2
v 5 0 2
v -5 0 -3
v -4 0 -3
v 4 0 -3
v 5 0 -3
v -4 4 -0
v 4 4 -0
v -4 4 -1
v 4 4 -1
v -5 5 3
v 5 5 3
v -5 5 -0
v 5 5 -0
v -5 5 -1
v 5 5 -1
v -5 5 -4
v 5 5 -4
v -3 7 -0
v 3 7 -0
v -3 7 -1
v 3 7 -1
v -1 8 -1
v 1 8 -1
v -1 8 -2
v 1 8 -2
v -5 1 2
v -4 1 2
v 4 1 2
v 5 1 2
v -5 1 -0
v -4 1 -0
v 4 1 -0
v 5 1 -0
v -5 1 -1
v -4 1 -1
v 4 1 -1
v 5 1 -1
v -5 1 -3
v -4 1 -3
v 4 1 -3
v 5 1 -3
v -5 6 3
v 5 6 3
v -5 6 -2
v -4 6 -2
v -3 6 -2
v -1 6 -2
v 1 6 -2
v 3 6 -2
v 4 6 -2
v -1 6 -3
v 1 6 -3
v 3 6 -3
v 4 6 -3
v -3 6 -4
v 5 6 -4
v -4 8 -2
v -3 8 -2
v -4 8 -4
v -3 8 -4
v -1 9 -1
v 1 9 -1
v -5 9 -2
v -4 9 -2
v 3 9 -2
v 4 9 -2
v -1 9 -3
v 1 9 -3
v 3 9 -3
v 4 9 -3
v -5 9 -4
v -4 9 -4
v -3 11 -0
v 3 11 -0
v -3 11 -1
v 3 11 -1

# faces
f 3/2/1 2/2/1 1/2/1
f 4/2/1 2/2/1 3/2/1
f 5/2/1 2/2/1 4/2/1
f 6/2/1 2/2/1 5/2/1
f 8/2/1 5/2/1 4/2/1
f 9/2/1 5/2/1 8/2/1
f 11/2/1 9/2/1 8/2/1
f 11/2/1 10/2/1 9/2/1
f 11/2/1 8/2/1 7/2/1
f 12/2/1 10/2/1 11/2/1
f 13/2/1 10/2/1 12/2/1
f 14/6/1 13/6/1 12/6/1
f 15/6/1 13/6/1 14/6/1
f 18/3/1 17/3/1 16/3/1
f 19/3/1 17/3/1 18/3/1
f 20/1/1 19/1/1 18/1/1
f 21/1/1 19/1/1 20/1/1
f 25/3/1 23/3/1 22/3/1
f 26/3/1 25/3/1 24/3/1
f 27/3/1 23/3/1 25/3/1
f 27/3/1 25/3/1 26/3/1
f 30/4/1 29/4/1 28/4/1
f 31/4/1 29/4/1 30/4/1
f 32/7/1 31/7/1 30/7/1
f 33/7/1 31/7/1 32/7/1
f 36/2/1 35/2/1 34/2/1
f 37/2/1 35/2/1 36/2/1
f 38/2/1 35/2/1 37/2/1
f 39/2/1 35/2/1 38/2/1
f 40/2/1 38/2/1 37/2/1
f 41/2/1 38/2/1 40/2/1
f 42/2/2 43/2/2 44/2/2
f 44/2/2 43/2/2 45/2/2
f 45/2/2 43/2/2 46/2/2
f 46/2/2 43/2/2 47/2/2
f 45/2/2 46/2/2 48/2/2
f 48/2/2 46/2/2 49/2/2
f 50/6/2 51/6/2 52/6/2
f 52/6/2 51/6/2 53/6/2
f 54/5/2 55/5/2 56/5/2
f 56/5/2 55/5/2 57/5/2
f 58/3/2 59/3/2 61/3/2
f 60/3/2 61/3/2 62/3/2
f 61/3/2 59/3/2 63/3/2
f 62/3/2 61/3/2 63/3/2
f 64/3/2 65/3/2 66/3/2
f 66/3/2 65/3/2 67/3/2
f 66/1/2 67/1/2 68/1/2
f 68/1/2 67/1/2 69/1/2
f 70/4/2 71/4/2 72/4/2
f 72/4/2 71/4/2 73/4/2
f 72/7/2 73/7/2 74/7/2
f 74/7/2 73/7/2 75/7/2
f 76/2/2 77/2/2 78/2/2
f 78/2/2 77/2/2 79/2/2
f 79/2/2 77/2/2 80/2/2
f 80/2/2 77/2/2 81/2/2
f 79/2/2 80/2/2 83/2/2
f 83/2/2 80/2/2 84/2/2
f 83/2/2 84/2/2 86/2/2
f 84/2/2 85/2/2 86/2/2
f 82/2/2 83/2/2 86/2/2
f 86/2/2 85/2/2 87/2/2
f 90/2/3 89/2/3 88/2/3
f 91/2/3 89/2/3 90/2/3
f 94/2/3 93/2/3 92/2/3
f 95/2/3 93/2/3 94/2/3
f 98/2/3 97/2/3 96/2/3
f 99/2/3 97/2/3 98/2/3
f 102/2/3 101/2/3 100/2/3
f 103/2/3 101/2/3 102/2/3
f 107/3/3 105/3/3 104/3/3
f 108/1/3 106/1/3 105/1/3
f 108/3/3 105/3/3 107/3/3
f 109/1/3 106/1/3 108/1/3
f 111/2/3 101/2/3 103/2/3
f 112/2/3 111/2/3 110/2/3
f 113/2/3 101/2/3 111/2/3
f 113/2/3 111/2/3 112/2/3
f 116/6/3 115/6/3 114/6/3
f 117/6/3 115/6/3 116/6/3
f 118/6/3 115/6/3 117/6/3
f 119/5/3 117/5/3 116/5/3
f 120/5/3 117/5/3 119/5/3
f 123/3/3 122/3/3 121/3/3
f 124/3/3 122/3/3 123/3/3
f 128/4/3 126/4/3 125/4/3
f 129/7/3 127/7/3 126/7/3
f 129/4/3 126/4/3 128/4/3
f 130/7/3 127/7/3 129/7/3
f 131/2/4 132/2/4 133/2/4
f 133/2/4 132/2/4 134/2/4
f 135/3/4 136/3/4 138/3/4
f 136/1/4 137/1/4 138/1/4
f 138/1/4 137/1/4 139/1/4
f 135/3/4 138/3/4 140/3/4
f 139/1/4 137/1/4 141/1/4
f 135/3/4 140/3/4 142/3/4
f 140/1/4 141/1/4 143/1/4
f 142/3/4 140/3/4 143/3/4
f 141/1/4 137/1/4 144/1/4
f 143/1/4 141/1/4 144/1/4
f 134/2/4 132/2/4 146/2/4
f 145/2/4 146/2/4 147/2/4
f 146/2/4 132/2/4 148/2/4
f 147/2/4 146/2/4 148/2/4
f 149/2/4 150/2/4 151/2/4
f 151/2/4 150/2/4 152/2/4
f 153/3/4 154/3/4 155/3/4
f 155/3/4 154/3/4 156/3/4
f 157/4/4 158/4/4 162/4/4
f 158/7/4 159/7/4 163/7/4
f 162/4/4 158/4/4 163/4/4
f 163/7/4 159/7/4 164/7/4
f 160/2/4 161/2/4 165/2/4
f 165/2/4 161/2/4 166/2/4
f 167/2/4 168/2/4 170/2/4
f 168/6/4 169/6/4 170/6/4
f 170/6/4 169/6/4 171/6/4
f 171/6/4 169/6/4 172/6/4
f 167/2/4 170/2/4 173/2/4
f 170/5/4 171/5/4 173/5/4
f 173/5/4 171/5/4 174/5/4
f 167/2/4 173/2/4 175/2/4
f 175/2/4 173/2/4 176/2/4
f 181/2/5 178/2/5 177/2/5
f 182/2/5 178/2/5 181/2/5
f 183/2/5 180/2/5 179/2/5
f 184/2/5 180/2/5 183/2/5
f 187/2/5 186/2/5 185/2/5
f 188/2/5 186/2/5 187/2/5
f 191/2/5 190/2/5 189/2/5
f 192/2/5 190/2/5 191/2/5
f 195/2/5 194/2/5 193/2/5
f 196/2/5 194/2/5 195/2/5
f 199/3/5 198/3/5 197/3/5
f 200/3/5 198/3/5 199/3/5
f 203/3/5 202/3/5 201/3/5
f 204/3/5 202/3/5 203/3/5
f 205/2/6 206/2/6 209/2/6
f 209/2/6 206/2/6 210/2/6
f 207/2/6 208/2/6 211/2/6
f 211/2/6 208/2/6 212/2/6
f 213/2/6 214/2/6 217/2/6
f 217/2/6 214/2/6 218/2/6
f 215/2/6 216/2/6 219/2/6
f 219/2/6 216/2/6 220/2/6
f 221/2/6 222/2/6 223/2/6
f 223/2/6 222/2/6 224/2/6
f 224/2/6 222/2/6 225/2/6
f 225/2/6 222/2/6 226/2/6
f 226/2/6 222/2/6 227/2/6
f 227/2/6 222/2/6 228/2/6
f 228/2/6 222/2/6 229/2/6
f 225/2/6 226/2/6 230/2/6
f 227/2/6 228/2/6 231/2/6
f 231/2/6 228/2/6 232/2/6
f 229/2/6 222/2/6 233/2/6
f 231/2/6 232/2/6 234/2/6
f 232/2/6 233/2/6 234/2/6
f 225/2/6 230/2/6 234/2/6
f 230/2/6 231/2/6 234/2/6
f 233/2/6 222/2/6 235/2/6
f 234/2/6 233/2/6 235/2/6
f 236/5/6 237/5/6 238/5/6
f 238/5/6 237/5/6 239/5/6
f 240/3/6 241/3/6 246/3/6
f 246/3/6 241/3/6 247/3/6
f 244/7/6 245/7/6 248/7/6
f 248/7/6 245/7/6 249/7/6
f 242/6/6 243/6/6 250/6/6
f 250/6/6 243/6/6 251/6/6
f 252/1/6 253/1/6 254/1/6
f 254/1/6 253/1/6 255/1/6
